<svg width="1280" height="520" viewBox="0 0 1280 520" fill="none" xmlns="http://www.w3.org/2000/svg">
  <defs>
    <linearGradient id="bg" x1="0" y1="0" x2="1280" y2="520" gradientUnits="userSpaceOnUse">
      <stop stop-color="#180326"/>
      <stop offset="1" stop-color="#4A0A63"/>
    </linearGradient>
    <linearGradient id="card" x1="110" y1="120" x2="1170" y2="400" gradientUnits="userSpaceOnUse">
      <stop stop-color="#FFFAFB"/>
      <stop offset="1" stop-color="#F4F7F9"/>
    </linearGradient>
  </defs>

  <rect width="1280" height="520" rx="28" fill="url(#bg)"/>

  <circle cx="180" cy="110" r="110" fill="#9900CC" fill-opacity="0.26"/>
  <circle cx="1080" cy="430" r="150" fill="#22C55E" fill-opacity="0.16"/>
  <circle cx="1180" cy="120" r="90" fill="#90CCFF" fill-opacity="0.16"/>

  <rect x="110" y="110" width="1060" height="300" rx="20" fill="url(#card)"/>

  <rect x="170" y="160" width="280" height="200" rx="16" fill="white"/>
  <circle cx="260" cy="235" r="40" fill="#EEF2F6"/>
  <rect x="320" y="208" width="96" height="16" rx="8" fill="#002D5B" fill-opacity="0.22"/>
  <rect x="320" y="236" width="80" height="12" rx="6" fill="#002D5B" fill-opacity="0.16"/>
  <rect x="208" y="292" width="204" height="44" rx="12" fill="#F4F7F9"/>
  <path d="M250 236L262 248L284 224" stroke="#22C55E" stroke-width="6" stroke-linecap="round" stroke-linejoin="round"/>

  <rect x="500" y="160" width="620" height="84" rx="16" fill="white"/>
  <rect x="540" y="188" width="196" height="16" rx="8" fill="#002D5B" fill-opacity="0.2"/>
  <rect x="760" y="188" width="320" height="16" rx="8" fill="#002D5B" fill-opacity="0.12"/>

  <rect x="500" y="268" width="620" height="92" rx="16" fill="white"/>
  <rect x="540" y="296" width="152" height="12" rx="6" fill="#9900CC" fill-opacity="0.35"/>
  <rect x="710" y="296" width="370" height="12" rx="6" fill="#002D5B" fill-opacity="0.16"/>
  <rect x="540" y="318" width="540" height="12" rx="6" fill="#002D5B" fill-opacity="0.12"/>
  <rect x="540" y="340" width="478" height="12" rx="6" fill="#002D5B" fill-opacity="0.1"/>

  <rect x="170" y="386" width="950" height="4" rx="2" fill="#9900CC" fill-opacity="0.26"/>
</svg>
