<svg width="91" height="23" viewBox="0 0 91 23" fill="none" xmlns="http://www.w3.org/2000/svg">
<path d="M0.0185144 0.023941L13.7268 0.0252983L13.725 3.6443L4.46683 3.6506L4.46953 9.16529C7.00715 9.20713 9.6553 9.16875 12.202 9.16947C12.0268 9.66228 11.8469 10.1534 11.6623 10.6429C11.4469 11.2394 11.2272 11.8343 11.0031 12.4276C8.85178 12.4667 6.63003 12.4198 4.46629 12.4356L4.46472 20.5057L0.0212977 20.5123C-0.02501 18.2693 0.0186311 15.8664 0.0185907 13.6129L0.0185144 0.023941Z" fill="#9900CC"/>
<path d="M15.4793 0.0242844L19.9662 0.0250799L19.9663 20.5085L6.72787 20.5111L6.72877 16.8766L15.4764 16.8794L15.4793 0.0242844Z" fill="#9900CC"/>
<path fill-rule="evenodd" clip-rule="evenodd" d="M86.2379 12.1893C86.2958 12.1711 86.3325 12.1854 86.3922 12.199C86.4744 12.3762 86.4375 12.9548 86.4312 13.1766C85.7576 13.0362 84.6057 12.9246 83.8912 12.8348C84.5347 13.1598 85.1011 13.2928 85.4361 13.9969C86.2808 15.7714 84.9409 17.3145 83.1246 17.3094C82.519 17.3076 82.2663 17.2635 81.7066 17.0936C81.3263 17.2892 80.8624 17.6283 81.0699 18.1063C81.4553 18.8935 83.0809 18.6136 83.9117 18.6512C85.6887 18.7318 86.7843 19.5121 86.1529 21.408C85.9777 21.9343 85.2519 22.28 84.7144 22.451C83.7559 22.7019 82.7848 22.685 81.8141 22.5662C79.6205 22.2979 78.5951 20.0974 81.4273 19.5819C81.0685 19.4797 80.8547 19.4466 80.5465 19.2069C80.044 18.816 79.8655 18.0719 80.2867 17.5535C80.6015 17.1672 81.0737 17.098 81.5455 17.0526C81.4548 16.998 81.3645 16.9405 81.2769 16.8807C80.2996 16.2033 79.939 14.8343 80.6353 13.8192C81.3314 12.8038 82.8587 12.762 83.9684 12.5799L86.2379 12.1893ZM85.2291 20.2801C84.9815 19.2831 82.6261 19.5414 81.8277 19.6014C81.191 19.7938 80.5876 20.1917 80.8121 20.9178C81.115 21.8964 83.5091 21.7541 84.2105 21.618C84.9083 21.4267 85.4338 21.1068 85.2291 20.2801ZM82.65 13.7127C82.1798 13.8321 81.772 13.9911 81.5084 14.4412C81.3469 14.7209 81.3057 15.0545 81.3941 15.3651C81.488 15.7037 81.7149 15.9897 82.023 16.158C82.4357 16.3883 82.9206 16.3823 83.3805 16.3504C83.827 16.2586 84.1547 16.144 84.4195 15.7469C84.816 15.1518 84.5975 14.3379 84.0025 13.9705C83.5495 13.6907 83.1542 13.6917 82.65 13.7127Z" fill="#9900CC"/>
<path fill-rule="evenodd" clip-rule="evenodd" d="M78.2571 0.00123596C78.2499 1.47767 78.2528 2.95454 78.2658 4.43092C78.6107 3.36175 79.188 2.44314 80.4133 2.27077C81.1802 2.15603 81.961 2.3553 82.5793 2.8235C84.2633 4.11087 84.2477 6.89129 83.0217 8.50221C81.9282 9.69892 80.0573 9.92245 78.9055 8.62721C78.5526 8.23046 78.4228 7.80339 78.2688 7.30983C78.2023 7.91356 78.1933 8.63904 78.1731 9.25612L77.1838 9.2571V0.000259399L78.2571 0.00123596ZM80.9133 8.5276C83.7082 7.98658 83.4377 2.83508 80.1301 3.1985C79.4092 3.37941 79.0194 3.61299 78.5862 4.2571C78.1881 4.84909 78.1578 6.17732 78.3293 6.85475C78.4735 7.43889 78.8457 7.94077 79.3625 8.24831C79.8255 8.51941 80.3853 8.6102 80.9133 8.5276Z" fill="#9900CC"/>
<path fill-rule="evenodd" clip-rule="evenodd" d="M55.1274 2.26228C57.1069 2.12685 58.8232 3.61943 58.9653 5.60017C59.1072 7.58111 57.6209 9.30426 55.642 9.45271C53.6542 9.60178 51.9233 8.10576 51.7807 6.1158C51.6382 4.12587 53.1386 2.39858 55.1274 2.26228ZM56.7485 3.5572C56.1535 3.17575 55.638 3.15152 54.975 3.19685C51.77 3.7726 52.3518 9.05801 55.8725 8.49275C56.4918 8.36798 57.0523 8.05698 57.3959 7.51619C58.1575 6.31741 58.0137 4.36855 56.7485 3.5572Z" fill="#9900CC"/>
<path fill-rule="evenodd" clip-rule="evenodd" d="M35.3992 12.8393C37.3852 12.6001 39.1862 14.0257 39.41 16.0151C39.6335 18.0045 38.1944 19.796 36.2049 20.0043C34.2371 20.2104 32.4719 18.7885 32.2508 16.8208C32.0299 14.8533 33.4352 13.0761 35.3992 12.8393ZM35.7068 13.7163C34.9337 13.8389 34.3161 14.0369 33.8436 14.7026C33.0586 15.8084 33.2021 17.835 34.3592 18.644C34.9074 19.0272 35.4268 19.1102 36.0574 19.0981C36.3171 19.0568 36.563 19.0195 36.7967 18.9243C39.0956 17.9874 38.741 13.8735 36.0555 13.7319C35.9234 13.7249 35.8408 13.7036 35.7068 13.7163Z" fill="#9900CC"/>
<path fill-rule="evenodd" clip-rule="evenodd" d="M33.2331 2.26221C35.2126 2.12678 36.9289 3.61936 37.0709 5.6001C37.2129 7.58104 35.7266 9.30419 33.7477 9.45264C31.7599 9.6017 30.029 8.10569 29.8864 6.11572C29.7439 4.1258 31.2443 2.39851 33.2331 2.26221ZM34.8541 3.55713C34.2592 3.17568 33.7437 3.15145 33.0807 3.19678C29.8757 3.77253 30.4575 9.05794 33.9782 8.49268C34.5975 8.36791 35.1579 8.05691 35.5016 7.51612C36.2632 6.31734 36.1194 4.36848 34.8541 3.55713Z" fill="#9900CC"/>
<path fill-rule="evenodd" clip-rule="evenodd" d="M72.5964 2.2618C73.4703 2.25778 74.2687 2.31646 74.9333 2.96981C75.8232 3.84433 75.6598 5.13949 75.6589 6.27352L75.656 9.25692H74.6648C74.6293 8.50782 74.6611 7.49364 74.5857 6.78719C74.5188 7.35346 74.4326 7.82277 74.1062 8.32528C73.3207 9.53456 71.336 9.80779 70.1492 9.07137C69.7001 8.79272 69.5136 8.40337 69.4148 7.90242C69.3241 5.1947 71.7855 5.71998 73.5974 5.54793C74.4164 5.4701 74.8395 4.87777 74.4949 4.09285C74.0251 3.02383 72.3073 2.91752 71.4118 3.45711C70.8108 3.82349 70.5876 4.41786 70.4363 5.06844C70.227 5.07159 69.5603 5.11575 69.4245 5.00789C69.4192 4.97372 69.4156 4.93895 69.4138 4.90438C69.3931 4.3713 69.7476 3.60706 70.114 3.23348C70.819 2.51563 71.5303 2.30162 72.4949 2.26278L72.5964 2.2618ZM74.5544 5.23934C74.0738 7.10944 70.9754 5.46423 70.5105 7.26473C70.4157 7.63111 70.595 8.05795 70.8699 8.30379C71.9893 8.99353 73.6352 8.41428 74.2751 7.33211C74.6559 6.68825 74.6469 6.05962 74.616 5.34285C74.6145 5.31451 74.5812 5.25849 74.5544 5.23934Z" fill="#9900CC"/>
<path d="M26.7026 10.3944C29.1262 10.0765 31.0625 11.5209 31.4175 13.9434L30.261 13.9449C30.0681 12.9583 29.572 12.115 28.6242 11.6789C27.8264 11.3206 26.9195 11.2926 26.1011 11.6009C23.3836 12.6185 23.3838 17.5747 25.9683 18.7353C26.7985 19.1082 27.7167 19.0676 28.5555 18.7499C29.5796 18.2812 29.9884 17.4655 30.2424 16.4306L31.3986 16.4349C31.2088 18.3464 29.8055 19.7643 27.911 19.9916C25.1504 20.3228 23.2465 18.6053 22.9454 15.896C22.6552 13.2847 23.8746 10.6922 26.7026 10.3944Z" fill="#9900CC"/>
<path d="M23.302 0.000892639L29.5378 0.0010634L29.5386 1.00336C27.8511 1.03971 26.1189 0.987544 24.4182 1.01676L24.4192 3.96118C25.9077 3.99152 27.481 3.96518 28.976 3.96451L28.9767 4.98752L24.4186 4.98869L24.4186 9.25516L23.2994 9.2571L23.302 0.000892639Z" fill="#9900CC"/>
<path d="M87.2145 2.26224C88.5375 2.17522 90.0679 2.60316 90.3791 4.11093C90.4065 4.24302 90.4577 4.45547 90.3975 4.57871C90.2039 4.63605 89.6017 4.61264 89.3669 4.6103C89.031 2.45686 85.6823 2.91487 85.7564 4.3134C85.8206 5.53044 89.1711 5.34378 89.9331 6.14684C90.2017 6.4299 90.4415 6.6441 90.4666 7.12468C90.5901 8.91116 89.2506 9.32104 87.8427 9.47534C86.0263 9.48675 84.8717 9.03952 84.4855 7.10635L85.601 7.10014C85.7595 8.59583 87.7053 8.86392 88.8401 8.30558C89.2106 8.12338 89.3224 7.83336 89.4154 7.45722C89.3817 7.30778 89.3152 6.96127 89.1917 6.87008C87.9532 5.95435 84.8133 6.53817 84.6885 4.3725C84.6571 3.88271 84.8232 3.40081 85.1501 3.0347C85.6958 2.42835 86.452 2.29882 87.2145 2.26224Z" fill="#9900CC"/>
<path d="M40.3813 2.26202C42.0565 2.15277 43.4312 2.74949 43.5875 4.60973L42.5443 4.6082C42.4388 4.16029 42.3753 3.87454 41.9776 3.53753C41.2299 2.90392 38.8056 2.9814 38.9194 4.32739C39.0108 5.09791 40.3229 5.31688 41.047 5.43405C42.8016 5.71805 44.494 6.51175 43.234 8.58016C42.8454 9.21796 41.7691 9.39162 41.0067 9.47562C39.2959 9.49521 37.9151 9.02047 37.6669 7.10438L38.7547 7.10016C38.9301 8.24304 39.8459 8.58744 40.8942 8.55706C41.3744 8.54313 41.9666 8.4429 42.3093 8.07953C42.6817 7.68798 42.6215 6.97674 42.1302 6.71238C41.632 6.44425 40.9626 6.38969 40.4131 6.25382C39.7092 6.07971 38.9376 5.99126 38.3737 5.48636C38.0567 5.20214 37.8654 4.80339 37.8422 4.378C37.7619 2.85705 39.1091 2.32032 40.3813 2.26202Z" fill="#9900CC"/>
<path d="M50.2523 12.8215C51.9579 12.7354 53.5386 13.1345 53.6899 15.1595C53.3482 15.1695 52.9867 15.165 52.6431 15.1662C52.5668 14.7671 52.4761 14.4528 52.1537 14.1697C51.4356 13.5403 49.9038 13.5266 49.2221 14.231C49.0915 14.3761 48.9752 14.6156 49.0012 14.8154C49.109 15.6473 49.9986 15.719 50.6277 15.8805C51.4841 16.1071 52.5484 16.1848 53.2579 16.7562C53.918 17.288 53.8583 18.5596 53.3203 19.1559C52.7644 19.7716 52.0683 19.9647 51.2802 20.0063C49.532 20.1879 48.0528 19.5812 47.7631 17.6762L48.827 17.6661C48.9549 18.1064 49.0371 18.3859 49.4157 18.6979C49.8984 19.0957 50.6138 19.1665 51.2182 19.106C51.6502 19.0626 52.1545 18.9478 52.4415 18.5965C52.5722 18.4366 52.7329 18.0818 52.6898 17.8819C52.4294 16.6751 49.4489 16.9918 48.5593 16.1125C48.2396 15.847 47.9886 15.5224 47.9544 15.0804C47.8359 13.5517 48.9738 12.9644 50.2523 12.8215Z" fill="#9900CC"/>
<path d="M47.6607 2.26221L47.6724 2.26154C49.5104 2.1655 50.9183 3.24968 51.0126 5.13867L49.9416 5.14029C49.8944 4.74272 49.8414 4.41512 49.6263 4.06267C49.0569 3.12473 47.5786 2.92161 46.6971 3.48425C44.7674 4.71602 45.4046 8.73908 48.0321 8.52483C48.5117 8.48573 48.7565 8.36991 49.1436 8.12236C49.7282 7.62218 49.8401 7.23935 49.9429 6.51063L51.0166 6.51314C50.9861 7.29625 50.793 7.9011 50.2653 8.49328C49.2482 9.70658 46.7563 9.82025 45.635 8.67746C43.5735 6.57683 44.3016 2.40676 47.6607 2.26221Z" fill="#9900CC"/>
<path d="M43.8589 12.8185C43.9799 12.8106 44.1012 12.8063 44.2225 12.8056C44.8819 12.8063 45.5106 12.99 45.9871 13.4683C46.8547 14.3392 46.6899 15.738 46.6899 16.8684L46.689 19.8477L45.6211 19.8483C45.6081 18.4654 45.6471 17.1148 45.6215 15.6935C45.5946 14.1953 44.4702 13.473 43.0669 13.9147C42.7387 14.018 42.507 14.2367 42.2762 14.4897C41.6889 15.3139 41.7132 16.0724 41.7123 17.0463C41.7115 17.9793 41.7155 18.914 41.7183 19.8473L40.6435 19.8488L40.6442 13.0172L41.6399 13.0108C41.669 13.7255 41.7034 14.4401 41.743 15.1543C42.0296 13.8691 42.4857 13.092 43.8589 12.8185Z" fill="#9900CC"/>
<path d="M75.876 12.8189C75.9937 12.81 76.1113 12.806 76.2294 12.8068C76.9026 12.8064 77.5156 12.9807 78.0064 13.4684C78.8722 14.3295 78.7078 15.6315 78.7065 16.7471L78.7033 19.8453L77.6422 19.8489C77.6229 18.4257 77.6831 16.9924 77.6328 15.57C77.5659 13.6877 75.4961 13.2273 74.2958 14.4849C73.4506 15.7303 73.7322 18.3054 73.7335 19.8458L72.667 19.8493L72.6661 13.0164L73.6585 13.0119L73.7492 15.1285C74.0771 13.8741 74.4772 13.1026 75.876 12.8189Z" fill="#9900CC"/>
<path d="M59.755 13.016L60.8399 13.0129L60.8413 19.8481L59.8242 19.8475C59.8138 19.1136 59.7837 18.3801 59.7339 17.6478C59.4231 19.0806 58.8259 20.0461 57.2371 20.0247C54.6352 19.9898 54.8045 17.7819 54.8067 16.022L54.813 13.0162L55.8683 13.0142L55.8602 15.7284C55.8593 16.2891 55.8091 17.2366 55.942 17.7234C56.5397 19.9104 59.535 19.2795 59.6989 17.136C59.8062 15.7344 59.7563 14.3624 59.755 13.016Z" fill="#9900CC"/>
<path d="M62.9021 0L64.0041 0.00155507L64.0077 8.25773C65.6027 8.28344 67.2611 8.26034 68.8612 8.26084L68.8585 9.2554L62.898 9.25733L62.9021 0Z" fill="#9900CC"/>
<path d="M65.6395 11.1987L66.6648 11.1983L66.6805 13.0094C67.3011 13.0218 67.9527 13.0127 68.5755 13.0137L68.5733 13.803L66.6796 13.8025C66.6845 15.2067 66.6073 17.1129 66.7546 18.5109C66.8251 19.1801 68.3375 18.8663 68.5585 18.986L68.5773 19.1305L68.5733 19.8535C68.2459 19.8819 67.9177 19.8985 67.5889 19.9034C65.3005 19.946 65.6283 18.5688 65.6319 16.8077L65.6333 13.8044L64.4185 13.8011L64.4194 13.0154L65.6328 13.0129L65.6395 11.1987Z" fill="#9900CC"/>
<path d="M62.3829 10.5614L63.4288 10.5587C63.4665 13.6253 63.4288 16.7721 63.4279 19.8454L62.3825 19.8486C62.3165 16.8619 62.3694 13.566 62.3829 10.5614Z" fill="#9900CC"/>
<path d="M69.8536 13.0166L70.9022 13.013L70.8999 19.8457L69.854 19.8488L69.8536 13.0166Z" fill="#9900CC"/>
<path d="M70.2852 10.4521C70.6754 10.4031 71.032 10.6793 71.0827 11.0698C71.133 11.4604 70.8586 11.8184 70.4684 11.8705C70.0763 11.923 69.7162 11.6464 69.6654 11.2536C69.6142 10.8607 69.8922 10.5014 70.2852 10.4521Z" fill="#9900CC"/>
</svg>
