<svg width="32" height="32" viewBox="0 0 32 32" fill="none" xmlns="http://www.w3.org/2000/svg">
<path d="M2.36304 29.3912L4.26588 22.4437C3.09033 20.4056 2.47285 18.0936 2.47569 15.7408C2.47879 8.3482 8.49483 2.33398 15.8876 2.33398C19.4751 2.33581 22.8424 3.73191 25.3749 6.26618C27.9073 8.80044 29.3007 12.169 29.2994 15.7516C29.2961 23.1437 23.2792 29.159 15.8875 29.159H15.8816C13.6372 29.1581 11.4318 28.595 9.47277 27.5268L2.36304 29.3912Z" fill="white"/>
<path d="M15.8924 4.59866C9.74347 4.59866 4.74292 9.59739 4.74073 15.7416C4.73771 17.8396 5.32853 19.8957 6.44489 21.6721L6.71011 22.0937L5.58379 26.2057L9.80289 25.0994L10.2103 25.3407C11.9214 26.3562 13.8833 26.8932 15.884 26.8943H15.8882C22.0324 26.8943 27.0329 21.8951 27.0353 15.7505C27.0399 14.286 26.754 12.8351 26.1941 11.4818C25.6342 10.1285 24.8114 8.89974 23.7734 7.86662C22.7411 6.82784 21.513 6.00414 20.1602 5.44319C18.8075 4.88225 17.3569 4.5952 15.8924 4.59866Z" fill="#14A800"/>
<path fill-rule="evenodd" clip-rule="evenodd" d="M12.5353 10.1356C12.2841 9.57763 12.0198 9.56633 11.7812 9.55667L11.1388 9.54883C10.9153 9.54883 10.5522 9.63268 10.2453 9.96808C9.93829 10.3035 9.07227 11.1141 9.07227 12.7628C9.07227 14.4116 10.2731 16.0047 10.4405 16.2286C10.6078 16.4524 12.7587 19.9437 16.165 21.2869C18.9957 22.4032 19.5717 22.1812 20.1864 22.1254C20.801 22.0696 22.1691 21.3148 22.4481 20.5322C22.7272 19.7497 22.7274 19.0793 22.6437 18.9391C22.5601 18.7989 22.3366 18.7156 22.0012 18.5479C21.6658 18.3802 20.0185 17.5696 19.7113 17.4577C19.4042 17.3458 19.1809 17.2902 18.9572 17.6256C18.7336 17.961 18.0921 18.7154 17.8965 18.9391C17.701 19.1628 17.5057 19.1908 17.1703 19.0233C16.8349 18.8558 15.7558 18.5018 14.4755 17.3602C13.4793 16.4719 12.8069 15.3749 12.6111 15.0397C12.4153 14.7045 12.5903 14.5229 12.7584 14.356C12.9088 14.2058 13.0934 13.9646 13.2613 13.769C13.4292 13.5734 13.4844 13.4336 13.596 13.2103C13.7075 12.987 13.6519 12.7909 13.5681 12.6234C13.4842 12.4559 12.8331 10.7984 12.5353 10.1356Z" fill="white"/>
</svg>
